<mxfile host="app.diagrams.net" agent="Mozilla/5.0 (Macintosh; Intel Mac OS X 10_15_7) AppleWebKit/537.36 (KHTML, like Gecko) Chrome/130.0.0.0 Safari/537.36" version="24.8.3">
  <diagram name="Page-1" id="qNMR5LJq7EP5DdgZM7eB">
    <mxGraphModel dx="1434" dy="819" grid="1" gridSize="10" guides="1" tooltips="1" connect="1" arrows="1" fold="1" page="1" pageScale="1" pageWidth="850" pageHeight="1100" math="0" shadow="0">
      <root>
        <mxCell id="0" />
        <mxCell id="1" parent="0" />
        <mxCell id="eHe55D351YFknPJLXxiH-4" value="" style="edgeStyle=orthogonalEdgeStyle;rounded=0;orthogonalLoop=1;jettySize=auto;html=1;" edge="1" parent="1" target="eHe55D351YFknPJLXxiH-3">
          <mxGeometry relative="1" as="geometry">
            <mxPoint x="280" y="60" as="sourcePoint" />
            <Array as="points">
              <mxPoint x="280" y="130" />
              <mxPoint x="280" y="130" />
            </Array>
          </mxGeometry>
        </mxCell>
        <mxCell id="eHe55D351YFknPJLXxiH-1" value="Receiving one off rejected ballot data?" style="rounded=1;whiteSpace=wrap;html=1;fillColor=#e1d5e7;strokeColor=#9673a6;" vertex="1" parent="1">
          <mxGeometry x="220" y="40" width="120" height="60" as="geometry" />
        </mxCell>
        <mxCell id="eHe55D351YFknPJLXxiH-20" value="" style="edgeStyle=orthogonalEdgeStyle;rounded=0;orthogonalLoop=1;jettySize=auto;html=1;" edge="1" parent="1" target="eHe55D351YFknPJLXxiH-5">
          <mxGeometry relative="1" as="geometry">
            <mxPoint x="620" y="60" as="sourcePoint" />
          </mxGeometry>
        </mxCell>
        <mxCell id="eHe55D351YFknPJLXxiH-2" value="Received a raw CSV or Excel file?" style="rounded=1;whiteSpace=wrap;html=1;fillColor=#e1d5e7;strokeColor=#9673a6;" vertex="1" parent="1">
          <mxGeometry x="560" y="40" width="120" height="60" as="geometry" />
        </mxCell>
        <mxCell id="eHe55D351YFknPJLXxiH-3" value="Enter into the Google Sheets template." style="ellipse;whiteSpace=wrap;html=1;rounded=1;fillColor=#d5e8d4;strokeColor=#82b366;" vertex="1" parent="1">
          <mxGeometry x="235" y="145" width="90" height="90" as="geometry" />
        </mxCell>
        <mxCell id="eHe55D351YFknPJLXxiH-22" value="" style="edgeStyle=orthogonalEdgeStyle;rounded=0;orthogonalLoop=1;jettySize=auto;html=1;entryX=1;entryY=0.5;entryDx=0;entryDy=0;" edge="1" parent="1" source="eHe55D351YFknPJLXxiH-5" target="eHe55D351YFknPJLXxiH-37">
          <mxGeometry relative="1" as="geometry">
            <mxPoint x="500" y="190" as="targetPoint" />
          </mxGeometry>
        </mxCell>
        <mxCell id="eHe55D351YFknPJLXxiH-30" value="" style="edgeStyle=orthogonalEdgeStyle;rounded=0;orthogonalLoop=1;jettySize=auto;html=1;" edge="1" parent="1" source="eHe55D351YFknPJLXxiH-5" target="eHe55D351YFknPJLXxiH-29">
          <mxGeometry relative="1" as="geometry" />
        </mxCell>
        <mxCell id="eHe55D351YFknPJLXxiH-5" value="Is it 50 rows or more?" style="whiteSpace=wrap;html=1;rounded=1;fillColor=#e1d5e7;strokeColor=#9673a6;" vertex="1" parent="1">
          <mxGeometry x="560" y="160" width="120" height="60" as="geometry" />
        </mxCell>
        <mxCell id="eHe55D351YFknPJLXxiH-28" value="" style="edgeStyle=orthogonalEdgeStyle;rounded=0;orthogonalLoop=1;jettySize=auto;html=1;" edge="1" parent="1" target="eHe55D351YFknPJLXxiH-3">
          <mxGeometry relative="1" as="geometry">
            <mxPoint x="410" y="190" as="sourcePoint" />
          </mxGeometry>
        </mxCell>
        <mxCell id="eHe55D351YFknPJLXxiH-29" value="Submit on the Google Form" style="ellipse;whiteSpace=wrap;html=1;rounded=1;fillColor=#dae8fc;strokeColor=#6c8ebf;" vertex="1" parent="1">
          <mxGeometry x="570" y="280" width="100" height="100" as="geometry" />
        </mxCell>
        <mxCell id="eHe55D351YFknPJLXxiH-34" value="" style="edgeStyle=orthogonalEdgeStyle;rounded=0;orthogonalLoop=1;jettySize=auto;html=1;entryX=0.5;entryY=0;entryDx=0;entryDy=0;" edge="1" parent="1" source="eHe55D351YFknPJLXxiH-31" target="eHe55D351YFknPJLXxiH-38">
          <mxGeometry relative="1" as="geometry">
            <mxPoint x="280" y="430" as="targetPoint" />
          </mxGeometry>
        </mxCell>
        <mxCell id="eHe55D351YFknPJLXxiH-42" value="" style="edgeStyle=orthogonalEdgeStyle;rounded=0;orthogonalLoop=1;jettySize=auto;html=1;" edge="1" parent="1" source="eHe55D351YFknPJLXxiH-31" target="eHe55D351YFknPJLXxiH-39">
          <mxGeometry relative="1" as="geometry" />
        </mxCell>
        <mxCell id="eHe55D351YFknPJLXxiH-31" value="Is it 50 rows or more?" style="whiteSpace=wrap;html=1;rounded=1;fillColor=#e1d5e7;strokeColor=#9673a6;" vertex="1" parent="1">
          <mxGeometry x="220" y="300" width="120" height="60" as="geometry" />
        </mxCell>
        <mxCell id="eHe55D351YFknPJLXxiH-32" value="" style="edgeStyle=orthogonalEdgeStyle;rounded=0;orthogonalLoop=1;jettySize=auto;html=1;entryX=0.5;entryY=0;entryDx=0;entryDy=0;" edge="1" parent="1" target="eHe55D351YFknPJLXxiH-31">
          <mxGeometry relative="1" as="geometry">
            <mxPoint x="279.5" y="235" as="sourcePoint" />
            <mxPoint x="280" y="320" as="targetPoint" />
            <Array as="points" />
          </mxGeometry>
        </mxCell>
        <mxCell id="eHe55D351YFknPJLXxiH-36" value="" style="edgeStyle=orthogonalEdgeStyle;rounded=0;orthogonalLoop=1;jettySize=auto;html=1;entryX=0;entryY=0.5;entryDx=0;entryDy=0;exitX=0;exitY=0.5;exitDx=0;exitDy=0;" edge="1" parent="1" source="eHe55D351YFknPJLXxiH-38">
          <mxGeometry relative="1" as="geometry">
            <mxPoint x="250" y="490" as="sourcePoint" />
            <mxPoint x="235" y="190" as="targetPoint" />
            <Array as="points">
              <mxPoint x="150" y="480" />
              <mxPoint x="150" y="190" />
            </Array>
          </mxGeometry>
        </mxCell>
        <mxCell id="eHe55D351YFknPJLXxiH-37" value="No" style="rhombus;whiteSpace=wrap;html=1;fillColor=#f8cecc;strokeColor=#b85450;" vertex="1" parent="1">
          <mxGeometry x="410" y="150" width="80" height="80" as="geometry" />
        </mxCell>
        <mxCell id="eHe55D351YFknPJLXxiH-38" value="No" style="rhombus;whiteSpace=wrap;html=1;fillColor=#f8cecc;strokeColor=#b85450;" vertex="1" parent="1">
          <mxGeometry x="240" y="440" width="80" height="80" as="geometry" />
        </mxCell>
        <mxCell id="eHe55D351YFknPJLXxiH-43" value="" style="edgeStyle=orthogonalEdgeStyle;rounded=0;orthogonalLoop=1;jettySize=auto;html=1;" edge="1" parent="1" source="eHe55D351YFknPJLXxiH-39" target="eHe55D351YFknPJLXxiH-29">
          <mxGeometry relative="1" as="geometry" />
        </mxCell>
        <mxCell id="eHe55D351YFknPJLXxiH-39" value="Yes" style="rhombus;whiteSpace=wrap;html=1;fillColor=#d5e8d4;strokeColor=#82b366;" vertex="1" parent="1">
          <mxGeometry x="410" y="290" width="80" height="80" as="geometry" />
        </mxCell>
        <mxCell id="eHe55D351YFknPJLXxiH-45" value="&lt;div style=&quot;&quot;&gt;&lt;span style=&quot;background-color: initial;&quot;&gt;In the Google Form, the election&lt;/span&gt;&lt;/div&gt;&lt;div style=&quot;&quot;&gt;day cure &lt;span style=&quot;background-color: initial;&quot;&gt;data&amp;nbsp;&lt;/span&gt;&lt;span style=&quot;background-color: initial;&quot;&gt;entry team&amp;nbsp;&lt;/span&gt;&lt;span style=&quot;background-color: initial;&quot;&gt;will attach&amp;nbsp;&lt;/span&gt;&lt;/div&gt;&lt;div style=&quot;&quot;&gt;&lt;span style=&quot;background-color: initial;&quot;&gt;the&amp;nbsp;&lt;/span&gt;&lt;span style=&quot;background-color: initial;&quot;&gt;data file. We&amp;nbsp;&lt;/span&gt;&lt;span style=&quot;background-color: initial;&quot;&gt;will be&amp;nbsp;&lt;/span&gt;&lt;span style=&quot;background-color: initial;&quot;&gt;closely&amp;nbsp;&lt;/span&gt;&lt;span style=&quot;background-color: initial;&quot;&gt;monitoring&lt;/span&gt;&lt;/div&gt;&lt;div style=&quot;&quot;&gt;&lt;span style=&quot;background-color: initial;&quot;&gt;the i&lt;/span&gt;&lt;span style=&quot;background-color: initial;&quot;&gt;nput&amp;nbsp;&lt;/span&gt;&lt;span style=&quot;background-color: initial;&quot;&gt;on election&amp;nbsp;&lt;/span&gt;&lt;span style=&quot;background-color: initial;&quot;&gt;day, so&amp;nbsp;&lt;/span&gt;&lt;span style=&quot;background-color: initial;&quot;&gt;that when&lt;/span&gt;&lt;/div&gt;&lt;div style=&quot;&quot;&gt;&lt;span style=&quot;background-color: initial;&quot;&gt;we&amp;nbsp;&lt;/span&gt;&lt;span style=&quot;background-color: initial;&quot;&gt;receive&amp;nbsp;&lt;/span&gt;&lt;span style=&quot;background-color: initial;&quot;&gt;new data,&amp;nbsp;&lt;/span&gt;&lt;span style=&quot;background-color: initial;&quot;&gt;we will&amp;nbsp;&lt;/span&gt;&lt;span style=&quot;background-color: initial;&quot;&gt;kickoff&lt;/span&gt;&lt;/div&gt;&lt;div style=&quot;&quot;&gt;&lt;span style=&quot;background-color: initial;&quot;&gt;the data&amp;nbsp;&lt;/span&gt;&lt;span style=&quot;background-color: initial;&quot;&gt;cleaning process,&amp;nbsp;&lt;/span&gt;&lt;span style=&quot;background-color: initial;&quot;&gt;complete the&lt;/span&gt;&lt;/div&gt;&lt;div style=&quot;&quot;&gt;&lt;span style=&quot;background-color: initial;&quot;&gt;voter f&lt;/span&gt;&lt;span style=&quot;background-color: initial;&quot;&gt;ile match,&amp;nbsp;&lt;/span&gt;&lt;span style=&quot;background-color: initial;&quot;&gt;and finally&amp;nbsp;&lt;/span&gt;&lt;span style=&quot;background-color: initial;&quot;&gt;send to VAN&lt;/span&gt;&lt;/div&gt;&lt;div style=&quot;&quot;&gt;&lt;span style=&quot;background-color: initial;&quot;&gt;as a saved list.&lt;/span&gt;&lt;/div&gt;" style="text;html=1;align=center;verticalAlign=middle;resizable=0;points=[];autosize=1;strokeColor=none;fillColor=none;" vertex="1" parent="1">
          <mxGeometry x="495" y="400" width="250" height="130" as="geometry" />
        </mxCell>
        <mxCell id="eHe55D351YFknPJLXxiH-46" value="" style="line;strokeWidth=1;fillColor=none;align=left;verticalAlign=middle;spacingTop=-1;spacingLeft=3;spacingRight=3;rotatable=0;labelPosition=right;points=[];portConstraint=eastwest;strokeColor=inherit;" vertex="1" parent="1">
          <mxGeometry x="90" y="550" width="715" height="8" as="geometry" />
        </mxCell>
        <mxCell id="eHe55D351YFknPJLXxiH-49" value="Receiving one off rejected ballot data?" style="rounded=1;whiteSpace=wrap;html=1;fillColor=#dae8fc;strokeColor=#6c8ebf;" vertex="1" parent="1">
          <mxGeometry x="390" y="580" width="120" height="60" as="geometry" />
        </mxCell>
      </root>
    </mxGraphModel>
  </diagram>
</mxfile>
